<?xml version="1.0" standalone="no"?>
<!DOCTYPE svg PUBLIC "-//W3C//DTD SVG 20010904//EN"
 "http://www.w3.org/TR/2001/REC-SVG-20010904/DTD/svg10.dtd">
<svg version="1.0" xmlns="http://www.w3.org/2000/svg"
 width="728.000000pt" height="724.000000pt" viewBox="0 0 728.000000 724.000000"
 preserveAspectRatio="xMidYMid meet">

<g transform="translate(0.000000,724.000000) scale(0.100000,-0.100000)"
fill="#000000" stroke="none">
<path d="M3455 6640 c-3 -5 -1 -10 4 -10 6 0 11 5 11 10 0 6 -2 10 -4 10 -3 0
-8 -4 -11 -10z"/>
<path d="M3480 6640 c0 -6 5 -8 10 -5 6 4 18 1 27 -7 12 -9 15 -9 9 0 -6 9 27
12 153 12 99 0 161 -4 164 -10 3 -6 4 -5 3 2 -3 17 -366 24 -366 8z"/>
<path d="M3363 6633 c15 -2 39 -2 55 0 15 2 2 4 -28 4 -30 0 -43 -2 -27 -4z"/>
<path d="M3872 6635 c4 -4 37 -9 75 -11 37 -3 75 -8 83 -11 8 -3 29 -7 45 -8
70 -3 155 -18 150 -25 -3 -4 2 -11 11 -14 9 -3 12 -2 9 5 -7 10 7 8 83 -11 17
-5 32 -5 32 -1 0 4 -33 15 -72 24 -130 30 -431 68 -416 52z"/>
<path d="M3278 6623 c12 -2 30 -2 40 0 9 3 -1 5 -23 4 -22 0 -30 -2 -17 -4z"/>
<path d="M3193 6609 c11 -7 23 -7 35 0 14 9 11 10 -18 10 -29 0 -32 -1 -17
-10z"/>
<path d="M3138 6603 c6 -2 18 -2 25 0 6 3 1 5 -13 5 -14 0 -19 -2 -12 -5z"/>
<path d="M3083 6593 c9 -2 23 -2 30 0 6 3 -1 5 -18 5 -16 0 -22 -2 -12 -5z"/>
<path d="M3000 6580 c-13 -9 -13 -10 0 -10 8 0 22 5 30 10 13 9 13 10 0 10 -8
0 -22 -5 -30 -10z"/>
<path d="M3050 6580 c0 -5 5 -10 11 -10 5 0 7 5 4 10 -3 6 -8 10 -11 10 -2 0
-4 -4 -4 -10z"/>
<path d="M2908 6553 c6 -2 18 -2 25 0 6 3 1 5 -13 5 -14 0 -19 -2 -12 -5z"/>
<path d="M4378 6553 c6 -2 18 -2 25 0 6 3 1 5 -13 5 -14 0 -19 -2 -12 -5z"/>
<path d="M2850 6541 c0 -5 9 -7 20 -4 11 3 20 7 20 9 0 2 -9 4 -20 4 -11 0
-20 -4 -20 -9z"/>
<path d="M2957 6539 c7 -7 15 -10 18 -7 3 3 -2 9 -12 12 -14 6 -15 5 -6 -5z"/>
<path d="M4315 6540 c-3 -6 1 -7 9 -4 18 7 21 14 7 14 -6 0 -13 -4 -16 -10z"/>
<path d="M4410 6540 c-18 -12 -2 -12 25 0 13 6 15 9 5 9 -8 0 -22 -4 -30 -9z"/>
<path d="M2820 6530 c0 -5 5 -10 10 -10 6 0 10 5 10 10 0 6 -4 10 -10 10 -5 0
-10 -4 -10 -10z"/>
<path d="M2755 6514 c-16 -8 -32 -18 -35 -21 -9 -10 44 9 65 23 26 19 7 18
-30 -2z"/>
<path d="M4484 6523 c15 -4 16 -7 5 -15 -10 -7 -8 -8 8 -3 12 3 45 -2 73 -11
28 -9 53 -14 56 -12 6 7 -92 39 -131 43 -16 2 -21 1 -11 -2z"/>
<path d="M2630 6479 c-30 -11 -68 -25 -85 -33 -16 -8 -77 -34 -135 -59 -58
-25 -127 -58 -155 -72 -129 -69 -145 -80 -144 -100 0 -15 2 -16 6 -5 9 21 28
35 106 75 45 24 76 34 90 30 16 -5 18 -4 8 3 -16 11 29 36 129 74 30 11 61 25
67 30 7 6 19 8 28 4 8 -3 14 0 12 6 -1 6 21 18 48 26 60 17 116 41 95 40 -8 0
-40 -9 -70 -19z"/>
<path d="M4660 6467 c14 -6 28 -16 31 -21 4 -4 11 -6 15 -3 5 3 27 -3 48 -14
22 -10 42 -17 44 -14 8 7 3 10 -70 39 -65 26 -117 36 -68 13z"/>
<path d="M4588 6453 c7 -3 16 -2 19 1 4 3 -2 6 -13 5 -11 0 -14 -3 -6 -6z"/>
<path d="M4836 6395 c10 -8 28 -14 39 -14 18 0 17 1 -5 14 -34 20 -60 20 -34
0z"/>
<path d="M2500 6389 c0 -5 5 -7 10 -4 6 3 10 8 10 11 0 2 -4 4 -10 4 -5 0 -10
-5 -10 -11z"/>
<path d="M2468 6373 c7 -3 16 -2 19 1 4 3 -2 6 -13 5 -11 0 -14 -3 -6 -6z"/>
<path d="M4914 6365 c8 -8 20 -15 27 -15 7 0 4 6 -7 15 -25 19 -40 19 -20 0z"/>
<path d="M2365 6340 c-13 -6 -15 -9 -5 -9 8 0 22 4 30 9 18 12 2 12 -25 0z"/>
<path d="M4972 6337 c7 -8 26 -17 41 -21 15 -3 25 -11 22 -16 -3 -5 -2 -11 3
-14 5 -3 9 2 9 10 0 8 -17 24 -38 35 -45 22 -56 24 -37 6z"/>
<path d="M2348 6303 c7 -3 16 -2 19 1 4 3 -2 6 -13 5 -11 0 -14 -3 -6 -6z"/>
<path d="M5100 6270 c24 -16 58 -35 75 -41 16 -7 49 -26 73 -43 31 -22 39 -32
30 -39 -9 -6 -7 -7 6 -3 19 6 86 -30 86 -46 0 -5 5 -8 10 -8 17 0 145 -101
142 -112 -1 -5 2 -7 8 -3 6 4 20 -5 31 -19 11 -14 27 -26 35 -26 15 0 19 -15
7 -23 -5 -2 -2 -2 6 0 17 4 97 -67 93 -84 -2 -8 3 -10 14 -6 12 4 15 3 10 -5
-4 -7 -3 -12 3 -12 19 0 123 -109 115 -121 -4 -8 -3 -9 5 -5 7 5 20 -3 32 -18
11 -14 25 -26 31 -26 6 0 -51 62 -128 138 -142 141 -214 207 -214 197 0 -3
-10 4 -22 17 -13 13 -45 40 -73 60 -27 21 -54 41 -60 45 -35 28 -136 93 -145
93 -5 0 -10 3 -10 8 0 4 -17 16 -37 27 -21 11 -64 34 -95 52 -70 41 -88 43
-28 3z"/>
<path d="M2185 6250 c-8 -13 5 -13 25 0 13 8 13 10 -2 10 -9 0 -20 -4 -23 -10z"/>
<path d="M2155 6231 c-3 -5 -2 -12 3 -15 5 -3 9 1 9 9 0 17 -3 19 -12 6z"/>
<path d="M2208 6223 c7 -3 16 -2 19 1 4 3 -2 6 -13 5 -11 0 -14 -3 -6 -6z"/>
<path d="M2050 6201 c-14 -10 -71 -49 -128 -87 -101 -67 -145 -104 -125 -104
5 0 18 9 28 20 10 11 24 20 32 20 8 0 11 5 7 12 -5 8 0 9 14 6 12 -4 20 -3 17
2 -6 10 30 42 38 33 4 -3 7 -2 7 4 0 6 32 29 70 52 39 23 70 46 70 51 0 12 0
12 -30 -9z"/>
<path d="M5220 6175 c7 -8 17 -15 22 -15 5 0 3 7 -6 15 -8 8 -18 15 -22 15 -3
0 -1 -7 6 -15z"/>
<path d="M5230 6136 c0 -2 7 -7 16 -10 8 -3 12 -2 9 4 -6 10 -25 14 -25 6z"/>
<path d="M5391 6054 c0 -11 3 -14 6 -6 3 7 2 16 -1 19 -3 4 -6 -2 -5 -13z"/>
<path d="M1720 5964 c-25 -20 -46 -37 -48 -39 -2 -1 5 -6 15 -9 9 -4 14 -4 11
0 -12 11 20 34 39 28 15 -5 15 -4 3 5 -14 10 -7 16 13 12 5 -1 6 3 3 8 -4 5 2
14 11 20 10 6 14 10 8 11 -5 0 -30 -16 -55 -36z"/>
<path d="M1650 5899 c0 -5 5 -7 10 -4 6 3 10 8 10 11 0 2 -4 4 -10 4 -5 0 -10
-5 -10 -11z"/>
<path d="M1588 5849 c-46 -40 -59 -59 -38 -59 6 0 10 6 10 14 0 14 27 31 43
27 5 -1 6 2 3 7 -7 11 30 42 40 34 4 -4 4 -1 0 6 -9 15 -3 18 -58 -29z"/>
<path d="M3418 5783 c7 -3 16 -2 19 1 4 3 -2 6 -13 5 -11 0 -14 -3 -6 -6z"/>
<path d="M3663 5783 c9 -2 23 -2 30 0 6 3 -1 5 -18 5 -16 0 -22 -2 -12 -5z"/>
<path d="M1488 5750 c-27 -29 -38 -57 -18 -45 6 3 10 13 10 22 0 10 6 14 20
10 11 -3 17 -1 14 4 -3 6 0 16 6 24 23 28 -5 14 -32 -15z"/>
<path d="M4438 5773 c6 -2 18 -2 25 0 6 3 1 5 -13 5 -14 0 -19 -2 -12 -5z"/>
<path d="M2088 5763 c7 -3 16 -2 19 1 4 3 -2 6 -13 5 -11 0 -14 -3 -6 -6z"/>
<path d="M4545 5760 c-11 -5 -14 -9 -7 -9 7 -1 10 -5 7 -11 -3 -6 5 -10 19
-10 44 0 77 -19 147 -87 38 -36 69 -63 69 -59 0 4 -30 37 -67 72 -48 47 -78
68 -110 77 -45 12 -55 23 -25 30 11 3 12 5 2 5 -8 0 -24 -3 -35 -8z"/>
<path d="M1953 5746 c-17 -6 -35 -15 -40 -19 -4 -5 6 -3 22 4 17 6 57 11 90
10 68 -2 71 4 5 12 -25 2 -59 0 -77 -7z"/>
<path d="M3460 5750 c-23 -7 -23 -8 -3 -9 12 -1 25 4 28 9 3 6 5 10 3 9 -2 -1
-14 -5 -28 -9z"/>
<path d="M4455 5750 c-8 -13 5 -13 25 0 13 8 13 10 -2 10 -9 0 -20 -4 -23 -10z"/>
<path d="M2100 5740 c0 -5 4 -10 9 -10 6 0 13 5 16 10 3 6 -1 10 -9 10 -9 0
-16 -4 -16 -10z"/>
<path d="M3658 5743 c7 -3 16 -2 19 1 4 3 -2 6 -13 5 -11 0 -14 -3 -6 -6z"/>
<path d="M3185 5730 c3 -5 8 -10 11 -10 2 0 4 5 4 10 0 6 -5 10 -11 10 -5 0
-7 -4 -4 -10z"/>
<path d="M3398 5733 c6 -2 18 -2 25 0 6 3 1 5 -13 5 -14 0 -19 -2 -12 -5z"/>
<path d="M4408 5733 c6 -2 18 -2 25 0 6 3 1 5 -13 5 -14 0 -19 -2 -12 -5z"/>
<path d="M2160 5721 c8 -5 26 -12 40 -15 l25 -7 -25 15 c-14 9 -32 15 -40 15
-13 0 -13 -1 0 -8z"/>
<path d="M3058 5723 c12 -2 32 -2 45 0 12 2 2 4 -23 4 -25 0 -35 -2 -22 -4z"/>
<path d="M3275 5721 c-3 -5 -1 -12 4 -16 11 -6 89 10 99 21 7 6 -4 5 -72 -12
-21 -5 -27 -4 -22 5 4 6 5 11 2 11 -3 0 -7 -4 -11 -9z"/>
<path d="M1854 5688 l-29 -33 30 25 c17 14 34 28 40 32 5 5 5 8 -1 8 -6 0 -23
-15 -40 -32z"/>
<path d="M2880 5704 c-25 -7 -51 -12 -58 -9 -20 7 -32 -3 -25 -21 3 -9 9 -11
17 -6 17 14 83 34 140 42 48 7 49 8 11 8 -22 0 -60 -6 -85 -14z"/>
<path d="M3230 5705 c14 -8 30 -14 35 -14 6 0 -1 6 -15 14 -14 8 -29 14 -35
14 -5 0 1 -6 15 -14z"/>
<path d="M4359 5697 c-21 -30 -42 -109 -36 -138 3 -17 5 -14 6 12 0 21 14 62
30 93 30 56 30 75 0 33z"/>
<path d="M3784 5675 c0 -29 2 -31 12 -17 9 13 10 21 1 32 -6 8 -12 16 -12 17
-1 1 -1 -13 -1 -32z"/>
<path d="M1395 5653 c-22 -25 -53 -62 -70 -82 -16 -20 -45 -52 -62 -71 -18
-19 -33 -38 -33 -42 0 -4 -6 -13 -12 -20 -20 -21 -54 -71 -67 -98 -11 -22 -11
-23 2 -7 21 26 46 60 57 77 8 11 12 12 18 3 6 -9 11 -7 20 7 8 13 8 21 1 26
-7 4 -4 13 7 25 9 10 21 16 27 12 6 -3 7 -1 3 5 -9 16 45 84 62 77 7 -3 10 0
7 6 -4 5 16 37 45 70 28 32 48 59 43 59 -5 0 -26 -21 -48 -47z"/>
<path d="M2234 5688 c-4 -7 -3 -8 4 -4 7 4 12 3 12 -3 0 -11 69 -55 76 -48 3
2 -11 14 -31 25 -19 12 -35 26 -35 32 0 14 -17 13 -26 -2z"/>
<path d="M5785 5690 c-3 -5 1 -10 10 -10 9 0 13 5 10 10 -3 6 -8 10 -10 10 -2
0 -7 -4 -10 -10z"/>
<path d="M2560 5670 c0 -5 7 -7 15 -4 16 7 48 -14 40 -26 -2 -3 2 -16 10 -28
12 -16 21 -19 43 -13 36 11 109 48 116 60 6 10 -24 25 -32 16 -3 -3 0 -5 7 -5
22 0 0 -20 -44 -40 -60 -27 -85 -26 -85 3 0 13 -5 28 -12 35 -14 14 -58 16
-58 2z"/>
<path d="M1779 5623 l-34 -36 32 22 c34 23 48 39 41 47 -2 2 -20 -13 -39 -33z"/>
<path d="M2503 5653 c-13 -2 -23 -8 -23 -13 0 -10 38 -1 46 11 3 5 4 8 2 8 -2
-1 -13 -4 -25 -6z"/>
<path d="M2399 5633 c-1 -5 -1 -12 0 -16 1 -5 -13 -6 -31 -3 -30 5 -30 5 -8
-4 18 -7 38 -6 70 5 l45 15 -38 -6 c-26 -3 -37 -2 -32 5 3 6 4 11 1 11 -3 0
-7 -3 -7 -7z"/>
<path d="M3737 5621 c-35 -23 -43 -31 -29 -31 6 0 24 11 39 25 33 28 29 31
-10 6z"/>
<path d="M5929 5603 c17 -31 61 -76 67 -70 3 3 -8 21 -25 39 -17 18 -31 36
-31 41 0 4 -5 7 -10 7 -7 0 -7 -6 -1 -17z"/>
<path d="M5035 5570 c-57 -20 -115 -50 -99 -50 5 0 29 9 52 20 22 11 47 20 55
20 7 0 22 7 33 15 24 18 21 18 -41 -5z"/>
<path d="M1720 5569 c0 -6 -7 -9 -15 -6 -8 4 -16 3 -19 -1 -9 -14 33 -11 45 4
8 10 8 14 0 14 -6 0 -11 -5 -11 -11z"/>
<path d="M3612 5546 c-58 -37 -77 -53 -47 -41 11 4 25 8 32 8 7 0 10 3 8 7 -3
4 11 16 30 26 19 10 35 22 35 26 0 10 4 12 -58 -26z"/>
<path d="M5156 5572 c5 -5 37 -21 70 -35 50 -22 67 -25 85 -17 23 10 23 10 1
6 -19 -4 -70 14 -124 44 -22 12 -46 13 -32 2z"/>
<path d="M4790 5565 c0 -2 14 -13 30 -25 17 -12 30 -17 30 -11 0 5 -13 16 -30
25 -16 8 -30 13 -30 11z"/>
<path d="M5250 5560 c8 -5 20 -10 25 -10 6 0 3 5 -5 10 -8 5 -19 10 -25 10 -5
0 -3 -5 5 -10z"/>
<path d="M5630 5550 c-13 -8 -11 -14 12 -37 15 -15 30 -24 34 -20 4 3 -4 15
-17 26 -13 11 -21 23 -16 27 4 4 14 -1 23 -12 14 -18 15 -18 4 4 -12 24 -18
26 -40 12z"/>
<path d="M5940 5540 c0 -5 5 -10 11 -10 5 0 7 5 4 10 -3 6 -8 10 -11 10 -2 0
-4 -4 -4 -10z"/>
<path d="M4321 5520 c0 -8 8 -35 19 -59 11 -24 20 -49 20 -57 0 -7 5 -16 11
-20 14 -8 6 19 -27 96 -13 30 -23 48 -23 40z"/>
<path d="M5575 5519 c-11 -17 1 -21 15 -4 8 9 8 15 2 15 -6 0 -14 -5 -17 -11z"/>
<path d="M4898 5513 c7 -3 16 -2 19 1 4 3 -2 6 -13 5 -11 0 -14 -3 -6 -6z"/>
<path d="M5980 5509 c0 -5 5 -7 10 -4 6 3 10 8 10 11 0 2 -4 4 -10 4 -5 0 -10
-5 -10 -11z"/>
<path d="M6010 5512 c0 -6 15 -31 34 -55 19 -25 31 -49 28 -53 -4 -4 -1 -4 6
0 7 5 16 -1 22 -16 11 -27 34 -58 44 -58 8 0 -56 96 -103 154 -17 21 -31 34
-31 28z"/>
<path d="M5320 5501 c0 -11 31 -24 38 -16 3 3 0 5 -7 5 -7 0 -9 5 -6 10 3 6
-1 10 -9 10 -9 0 -16 -4 -16 -9z"/>
<path d="M1625 5473 c-11 -14 -27 -33 -35 -42 -8 -9 -28 -35 -43 -56 -28 -40
-29 -40 -2 -10 15 17 44 49 65 71 44 49 54 64 43 64 -4 -1 -17 -13 -28 -27z"/>
<path d="M5540 5479 c0 -6 -7 -8 -16 -5 -8 3 -13 2 -10 -2 5 -9 -86 -7 -124 2
-18 5 -17 2 7 -9 17 -8 49 -17 71 -21 32 -5 43 -2 68 20 16 14 23 26 17 26 -7
0 -13 -5 -13 -11z m-47 -26 c-7 -2 -19 -2 -25 0 -7 3 -2 5 12 5 14 0 19 -2 13
-5z"/>
<path d="M3502 5460 c-7 -11 -8 -20 -3 -20 9 0 24 30 18 36 -1 2 -8 -6 -15
-16z"/>
<path d="M5680 5477 c0 -2 14 -16 32 -33 l31 -29 -22 33 c-18 26 -41 42 -41
29z"/>
<path d="M3271 5415 c-30 -14 -51 -28 -48 -31 3 -3 16 0 29 7 12 7 25 14 28
14 37 9 60 19 60 26 0 14 -10 11 -69 -16z"/>
<path d="M3476 5390 c-3 -17 -7 -65 -9 -108 -3 -42 -2 -56 0 -29 2 26 9 47 14
47 6 0 7 14 4 34 -4 19 -2 43 4 54 6 12 7 23 2 26 -5 3 -11 -8 -15 -24z"/>
<path d="M3331 5394 c0 -11 3 -14 6 -6 3 7 2 16 -1 19 -3 4 -6 -2 -5 -13z"/>
<path d="M4335 5399 c-4 -6 -5 -12 -2 -15 2 -3 7 2 10 11 7 17 1 20 -8 4z"/>
<path d="M5740 5406 c0 -2 7 -9 15 -16 13 -11 14 -10 9 4 -5 14 -24 23 -24 12z"/>
<path d="M1525 5389 c-4 -6 -5 -12 -2 -15 2 -3 7 2 10 11 7 17 1 20 -8 4z"/>
<path d="M3178 5364 c-16 -8 -28 -17 -28 -19 0 -10 16 -4 40 15 30 23 25 25
-12 4z"/>
<path d="M5780 5366 c0 -2 8 -10 18 -17 15 -13 16 -12 3 4 -13 16 -21 21 -21
13z"/>
<path d="M4351 5344 c0 -11 3 -14 6 -6 3 7 2 16 -1 19 -3 4 -6 -2 -5 -13z"/>
<path d="M4380 5342 c0 -11 4 -23 8 -26 10 -6 9 30 -1 40 -4 4 -7 -2 -7 -14z"/>
<path d="M3353 5310 c0 -25 2 -35 4 -22 2 12 2 32 0 45 -2 12 -4 2 -4 -23z"/>
<path d="M5822 5312 c57 -78 92 -121 96 -117 5 5 -91 135 -101 135 -5 0 -2 -8
5 -18z"/>
<path d="M1484 5306 c-6 -6 -19 -25 -30 -41 -32 -51 -82 -114 -86 -110 -2 2
-4 -5 -4 -15 0 -10 1 -18 2 -17 12 12 134 190 132 192 -2 2 -8 -2 -14 -9z"/>
<path d="M3069 5295 c-60 -45 -119 -115 -119 -144 0 -19 3 -22 9 -12 5 8 7 19
5 26 -5 11 72 90 130 133 16 12 25 22 20 22 -6 0 -26 -11 -45 -25z"/>
<path d="M6163 5293 c1 -17 5 -29 9 -27 11 7 41 -44 35 -60 -3 -8 1 -13 11
-12 10 1 21 -12 28 -33 6 -20 14 -29 18 -23 4 7 -13 42 -37 79 -24 38 -49 77
-55 88 -10 18 -11 17 -9 -12z"/>
<path d="M1117 5296 c-4 -10 -1 -13 9 -9 7 3 14 9 14 14 0 14 -17 10 -23 -5z"/>
<path d="M4341 5279 c-35 -28 -22 -32 14 -3 17 13 26 24 20 24 -5 -1 -21 -10
-34 -21z"/>
<path d="M1071 5224 c-24 -35 -30 -49 -21 -58 6 -6 10 -6 8 -1 -3 10 39 85 48
85 2 0 2 -12 -1 -27 -5 -27 -5 -27 5 -5 5 13 6 30 2 38 -6 11 -16 3 -41 -32z"/>
<path d="M3500 5255 c0 -5 5 -17 10 -25 5 -8 10 -10 10 -5 0 6 -5 17 -10 25
-5 8 -10 11 -10 5z"/>
<path d="M6166 5235 c-9 -26 -7 -32 5 -12 6 10 9 21 6 23 -2 3 -7 -2 -11 -11z"/>
<path d="M4284 5232 c-17 -12 -44 -55 -44 -72 0 -8 7 -2 16 15 8 16 23 38 31
47 17 19 16 23 -3 10z"/>
<path d="M3353 5195 c0 -22 2 -30 4 -17 2 12 2 30 0 40 -3 9 -5 -1 -4 -23z"/>
<path d="M4565 5205 c-38 -13 -63 -23 -55 -24 8 0 35 6 58 14 57 20 154 26
199 12 30 -9 32 -12 17 -19 -16 -7 -15 -8 3 -4 17 3 29 -4 44 -26 12 -16 23
-27 26 -24 3 2 -7 20 -21 39 -46 60 -149 73 -271 32z"/>
<path d="M1379 5203 c-13 -16 -12 -17 4 -4 9 7 17 15 17 17 0 8 -8 3 -21 -13z"/>
<path d="M1082 5180 c0 -14 2 -19 5 -12 2 6 2 18 0 25 -3 6 -5 1 -5 -13z"/>
<path d="M4440 5164 l-25 -15 25 7 c14 3 29 10 35 15 15 14 -7 10 -35 -7z"/>
<path d="M983 5068 c-52 -97 -74 -142 -117 -242 -40 -91 -29 -81 18 17 40 83
44 88 59 72 10 -9 17 -12 17 -6 0 5 -7 14 -16 19 -17 10 -16 13 64 162 18 34
31 64 29 67 -3 2 -27 -38 -54 -89z"/>
<path d="M4337 5142 c-43 -11 -55 -18 -47 -26 8 -8 13 -8 18 0 4 7 26 15 50
19 23 4 42 11 42 16 0 5 -1 8 -2 8 -2 -1 -29 -8 -61 -17z"/>
<path d="M5940 5159 c0 -7 62 -112 78 -132 5 -7 28 -48 52 -92 44 -82 67 -117
54 -80 -4 11 -15 31 -24 45 -10 14 -20 34 -24 45 -9 28 -136 228 -136 214z"/>
<path d="M4248 5133 c7 -3 16 -2 19 1 4 3 -2 6 -13 5 -11 0 -14 -3 -6 -6z"/>
<path d="M3363 5107 c1 -14 5 -23 9 -21 3 2 8 -4 10 -13 2 -10 6 -13 9 -8 4 6
-2 23 -11 39 l-18 28 1 -25z"/>
<path d="M4870 5121 c0 -6 4 -13 10 -16 6 -3 7 1 4 9 -7 18 -14 21 -14 7z"/>
<path d="M6267 5116 c-4 -9 -1 -16 6 -16 13 0 41 -55 40 -77 0 -7 3 -11 7 -8
9 6 31 -40 26 -57 -1 -7 -1 -10 1 -5 3 4 14 -3 25 -15 11 -13 -4 22 -32 77
-59 114 -65 122 -73 101z"/>
<path d="M3026 5105 c-9 -26 -7 -32 5 -12 6 10 9 21 6 23 -2 3 -7 -2 -11 -11z"/>
<path d="M3420 5099 c-7 -11 -9 -23 -6 -27 3 -3 6 0 6 7 0 7 4 10 8 7 4 -2 8
4 8 15 0 24 -3 24 -16 -2z"/>
<path d="M4348 5113 c7 -3 16 -2 19 1 4 3 -2 6 -13 5 -11 0 -14 -3 -6 -6z"/>
<path d="M1330 5101 c0 -5 -15 -35 -34 -67 -51 -87 -87 -156 -83 -160 2 -2 24
33 50 79 70 124 81 141 92 149 6 4 2 8 -7 8 -10 0 -18 -4 -18 -9z"/>
<path d="M2980 5094 c1 -12 20 -35 50 -59 16 -13 13 -6 -10 20 -19 22 -36 42
-37 44 -2 2 -3 0 -3 -5z"/>
<path d="M1285 5069 c-4 -6 -5 -12 -2 -15 2 -3 7 2 10 11 7 17 1 20 -8 4z"/>
<path d="M6241 5054 c0 -11 3 -14 6 -6 3 7 2 16 -1 19 -3 4 -6 -2 -5 -13z"/>
<path d="M4921 5043 c7 -12 15 -20 18 -17 3 2 -3 12 -13 22 -17 16 -18 16 -5
-5z"/>
<path d="M990 5021 c0 -6 4 -13 10 -16 6 -3 7 1 4 9 -7 18 -14 21 -14 7z"/>
<path d="M4960 5006 c0 -14 63 -96 74 -96 7 0 8 3 1 8 -6 4 -25 27 -43 51 -18
25 -32 41 -32 37z"/>
<path d="M3070 4952 l5 -47 3 39 c2 21 0 42 -5 47 -4 4 -6 -13 -3 -39z"/>
<path d="M3102 4965 c0 -16 2 -22 5 -12 2 9 2 23 0 30 -3 6 -5 -1 -5 -18z"/>
<path d="M4966 4933 c-6 -14 -5 -15 5 -6 7 7 10 15 7 18 -3 3 -9 -2 -12 -12z"/>
<path d="M6340 4920 c-9 -6 -10 -10 -3 -10 6 0 15 5 18 10 8 12 4 12 -15 0z"/>
<path d="M927 4903 c-4 -3 -7 -11 -7 -17 0 -6 5 -5 12 2 6 6 9 14 7 17 -3 3
-9 2 -12 -2z"/>
<path d="M6120 4900 c0 -5 5 -10 11 -10 5 0 7 5 4 10 -3 6 -8 10 -11 10 -2 0
-4 -4 -4 -10z"/>
<path d="M6370 4902 c0 -4 9 -13 21 -20 19 -12 19 -11 9 8 -10 19 -30 28 -30
12z"/>
<path d="M3101 4884 c0 -11 3 -14 6 -6 3 7 2 16 -1 19 -3 4 -6 -2 -5 -13z"/>
<path d="M5040 4895 c0 -5 5 -17 10 -25 5 -8 10 -10 10 -5 0 6 -5 17 -10 25
-5 8 -10 11 -10 5z"/>
<path d="M941 4864 c0 -11 3 -14 6 -6 3 7 2 16 -1 19 -3 4 -6 -2 -5 -13z"/>
<path d="M1155 4765 c-25 -53 -45 -101 -43 -107 2 -6 12 11 23 38 10 27 31 73
47 103 15 30 26 57 24 59 -3 2 -25 -40 -51 -93z"/>
<path d="M6411 4845 c-1 -11 8 -34 18 -51 10 -17 22 -45 26 -62 3 -18 11 -32
16 -32 12 0 12 17 -1 25 -5 3 -10 12 -10 19 0 23 -49 122 -49 101z"/>
<path d="M5070 4840 c0 -5 5 -10 11 -10 5 0 7 5 4 10 -3 6 -8 10 -11 10 -2 0
-4 -4 -4 -10z"/>
<path d="M6048 4833 c6 -2 18 -2 25 0 6 3 1 5 -13 5 -14 0 -19 -2 -12 -5z"/>
<path d="M5050 4820 c0 -5 5 -10 11 -10 5 0 7 5 4 10 -3 6 -8 10 -11 10 -2 0
-4 -4 -4 -10z"/>
<path d="M5920 4821 c-48 -10 -60 -18 -60 -44 0 -20 45 -77 61 -77 4 0 -6 13
-22 29 -31 31 -37 55 -16 68 6 4 41 13 77 19 41 8 52 12 30 12 -19 0 -51 -3
-70 -7z"/>
<path d="M5090 4815 c0 -5 5 -17 10 -25 5 -8 10 -10 10 -5 0 6 -5 17 -10 25
-5 8 -10 11 -10 5z"/>
<path d="M5938 4793 c12 -2 32 -2 45 0 12 2 2 4 -23 4 -25 0 -35 -2 -22 -4z"/>
<path d="M5120 4774 c0 -7 9 -31 20 -55 11 -24 20 -37 19 -29 0 18 -38 100
-39 84z"/>
<path d="M827 4733 c-3 -10 -22 -61 -41 -113 -39 -104 -41 -110 -26 -110 6 0
10 12 10 28 0 22 2 24 11 12 9 -13 10 -12 5 3 -3 10 1 37 10 60 39 111 45 129
41 133 -2 3 -7 -3 -10 -13z"/>
<path d="M3004 4729 c-10 -12 -30 -25 -43 -30 -13 -5 -21 -12 -18 -15 8 -9 62
25 75 47 16 25 10 24 -14 -2z"/>
<path d="M836 4694 c-5 -14 -4 -15 8 -5 10 8 16 9 19 1 3 -6 4 -5 3 2 -4 19
-23 20 -30 2z"/>
<path d="M5954 4675 c11 -8 29 -14 40 -14 20 1 21 1 1 6 -11 3 -24 9 -29 14
-6 5 -15 9 -20 9 -6 0 -2 -7 8 -15z"/>
<path d="M6480 4682 c0 -7 6 -28 14 -47 8 -18 11 -36 8 -40 -4 -3 -1 -10 6
-14 7 -4 14 -21 16 -37 7 -50 18 -84 27 -84 12 0 11 7 -2 32 -6 11 -12 32 -14
46 -4 32 -54 163 -55 144z"/>
<path d="M2865 4655 c-27 -13 -68 -31 -89 -40 -22 -8 -37 -17 -34 -20 5 -5
135 50 173 72 34 21 3 13 -50 -12z"/>
<path d="M6072 4658 c7 -4 40 -7 73 -7 73 1 62 6 -23 11 -34 3 -57 1 -50 -4z"/>
<path d="M6210 4648 c0 -9 4 -19 9 -22 4 -3 11 -20 15 -37 3 -18 8 -30 11 -28
2 3 0 23 -6 45 -12 43 -29 68 -29 42z"/>
<path d="M5132 4625 c0 -16 2 -22 5 -12 2 9 2 23 0 30 -3 6 -5 -1 -5 -18z"/>
<path d="M1091 4624 c0 -11 3 -14 6 -6 3 7 2 16 -1 19 -3 4 -6 -2 -5 -13z"/>
<path d="M5158 4531 c-2 -54 0 -112 3 -127 3 -16 7 28 8 99 1 70 -1 127 -3
127 -3 0 -6 -44 -8 -99z"/>
<path d="M2692 4568 c-7 -7 -12 -19 -12 -27 0 -18 89 -115 98 -107 3 3 -17 26
-43 52 -40 38 -47 49 -38 63 6 9 16 15 22 14 6 -2 11 2 11 7 0 14 -23 13 -38
-2z"/>
<path d="M1057 4533 c-4 -3 -7 -13 -7 -22 1 -13 3 -13 11 2 11 19 8 33 -4 20z"/>
<path d="M6261 4532 c-2 -23 24 -92 36 -96 7 -3 5 11 -7 37 -10 23 -20 49 -23
57 -3 9 -6 10 -6 2z"/>
<path d="M6290 4525 c0 -8 4 -15 10 -15 5 0 7 7 4 15 -4 8 -8 15 -10 15 -2 0
-4 -7 -4 -15z"/>
<path d="M2792 4510 c0 -14 2 -19 5 -12 2 6 2 18 0 25 -3 6 -5 1 -5 -13z"/>
<path d="M726 4433 c-10 -38 -21 -86 -26 -108 -5 -22 -13 -60 -19 -85 -21 -84
-53 -325 -48 -354 2 -12 6 11 10 49 4 39 11 90 17 115 5 25 12 71 15 103 4 31
10 57 15 57 4 0 6 10 3 23 -3 14 -2 18 4 10 6 -8 9 0 10 25 0 50 14 125 24
138 9 11 22 94 16 94 -2 0 -12 -30 -21 -67z"/>
<path d="M1035 4473 c-5 -10 -10 -27 -11 -38 -1 -11 -10 -42 -19 -68 -9 -27
-14 -51 -12 -54 3 -2 17 34 32 82 14 48 24 89 22 91 -3 3 -8 -3 -12 -13z"/>
<path d="M764 4456 c1 -20 26 -36 26 -16 0 6 -4 9 -9 5 -5 -3 -11 3 -14 12 -3
15 -4 15 -3 -1z"/>
<path d="M6491 4454 c0 -11 3 -14 6 -6 3 7 2 16 -1 19 -3 4 -6 -2 -5 -13z"/>
<path d="M2787 4400 c3 -11 10 -23 16 -27 7 -4 8 0 4 11 -4 10 -7 22 -7 27 0
5 -4 9 -9 9 -5 0 -7 -9 -4 -20z"/>
<path d="M6566 4373 c1 -16 3 -37 3 -48 1 -17 3 -18 12 -5 8 12 10 9 6 -13 -3
-19 -1 -25 5 -19 7 7 6 28 -3 61 -14 55 -26 68 -23 24z"/>
<path d="M5171 4354 c0 -11 3 -14 6 -6 3 7 2 16 -1 19 -3 4 -6 -2 -5 -13z"/>
<path d="M2802 4330 c0 -19 2 -27 5 -17 2 9 2 25 0 35 -3 9 -5 1 -5 -18z"/>
<path d="M6311 4344 c0 -11 3 -14 6 -6 3 7 2 16 -1 19 -3 4 -6 -2 -5 -13z"/>
<path d="M5190 4301 c0 -5 7 -28 15 -51 8 -23 13 -54 10 -69 -5 -24 -4 -24 6
-5 8 16 7 34 -6 77 -15 52 -25 71 -25 48z"/>
<path d="M974 4266 c-3 -21 -4 -39 -1 -42 2 -3 8 11 11 32 4 20 5 38 2 41 -2
3 -8 -11 -12 -31z"/>
<path d="M6381 4264 c0 -11 3 -14 6 -6 3 7 2 16 -1 19 -3 4 -6 -2 -5 -13z"/>
<path d="M6598 4275 c-4 -4 -2 -18 3 -32 9 -24 4 -47 -9 -39 -4 2 -8 -10 -9
-27 -1 -31 -1 -31 8 -7 6 13 15 27 21 31 7 5 8 19 2 44 -5 20 -12 34 -16 30z"/>
<path d="M6292 4233 c-23 -15 -39 -29 -37 -31 2 -2 17 5 33 17 17 12 35 21 41
21 6 0 11 5 11 10 0 14 -1 14 -48 -17z"/>
<path d="M6355 4219 c-4 -6 -5 -12 -2 -15 2 -3 7 2 10 11 7 17 1 20 -8 4z"/>
<path d="M962 4180 c0 -14 2 -19 5 -12 2 6 2 18 0 25 -3 6 -5 1 -5 -13z"/>
<path d="M2772 4163 c-15 -48 -8 -55 8 -8 7 20 10 38 8 41 -3 2 -10 -13 -16
-33z"/>
<path d="M701 4174 c0 -11 3 -14 6 -6 3 7 2 16 -1 19 -3 4 -6 -2 -5 -13z"/>
<path d="M6204 4175 c-10 -8 -14 -15 -8 -15 5 0 19 7 30 15 10 8 14 15 8 15
-5 0 -19 -7 -30 -15z"/>
<path d="M6614 4175 c3 -11 8 -37 11 -59 2 -21 7 -42 11 -45 4 -3 4 19 0 49
-4 30 -12 60 -18 65 -7 7 -8 4 -4 -10z"/>
<path d="M5243 4130 c0 -16 4 -30 9 -30 10 0 10 31 0 48 -6 8 -9 2 -9 -18z"/>
<path d="M6125 4123 c-50 -33 -65 -52 -63 -83 0 -22 1 -22 7 5 5 22 12 29 26
28 11 -1 14 0 7 3 -15 7 3 34 23 34 6 0 20 9 30 20 23 26 19 25 -30 -7z"/>
<path d="M940 4108 c-6 -18 -13 -67 -15 -108 l-4 -75 13 85 c8 47 17 95 21
108 12 35 -2 26 -15 -10z"/>
<path d="M2743 4083 c-7 -15 -11 -28 -9 -31 6 -6 28 38 24 48 -2 5 -9 -3 -15
-17z"/>
<path d="M5285 4065 c5 -11 8 -31 8 -44 -1 -16 2 -20 7 -11 6 9 10 7 14 -8 4
-11 14 -26 22 -33 8 -7 1 14 -17 47 -34 62 -48 82 -34 49z"/>
<path d="M2756 4053 c-6 -14 -5 -15 5 -6 7 7 10 15 7 18 -3 3 -9 -2 -12 -12z"/>
<path d="M6644 3969 c1 -63 5 -95 12 -92 7 2 8 27 2 76 -13 115 -15 118 -14
16z"/>
<path d="M5625 4043 c-31 -8 -61 -31 -75 -58 -12 -23 -8 -35 55 -160 38 -74
70 -133 73 -131 2 2 -2 15 -9 27 -6 13 -12 35 -11 50 0 20 -3 26 -14 22 -8 -3
-14 0 -14 7 0 6 -9 23 -20 37 -11 14 -20 37 -20 50 0 13 -4 22 -9 19 -8 -5
-21 39 -21 73 0 14 2 14 11 1 8 -12 9 -11 5 5 -6 21 9 31 84 53 28 8 30 10 10
10 -14 0 -34 -3 -45 -5z"/>
<path d="M5720 4025 c7 -8 20 -15 29 -15 14 0 14 -2 1 -11 -12 -8 -12 -9 4 -7
13 2 25 -6 33 -22 7 -14 13 -21 13 -17 0 5 12 -5 26 -22 14 -17 22 -36 18 -42
-4 -8 -3 -9 4 -5 7 4 26 -9 44 -30 52 -60 71 -75 107 -91 32 -14 35 -13 53 6
10 12 13 16 6 11 -24 -20 -64 -10 -99 23 -18 17 -72 74 -118 125 -46 50 -90
92 -97 92 -8 0 -14 5 -14 10 0 6 -5 10 -11 10 -8 0 -8 -5 1 -15z"/>
<path d="M2705 4010 c-3 -5 -1 -10 4 -10 6 0 11 5 11 10 0 6 -2 10 -4 10 -3 0
-8 -4 -11 -10z"/>
<path d="M5638 4003 c7 -3 16 -2 19 1 4 3 -2 6 -13 5 -11 0 -14 -3 -6 -6z"/>
<path d="M902 3980 c0 -14 2 -19 5 -12 2 6 2 18 0 25 -3 6 -5 1 -5 -13z"/>
<path d="M2519 3978 c-3 -32 4 -55 22 -73 19 -20 19 -20 0 20 -19 39 -19 61 0
50 5 -4 9 -1 9 4 0 15 -30 14 -31 -1z"/>
<path d="M2673 3976 c-9 -11 -7 -14 11 -12 14 0 22 6 19 14 -6 15 -15 15 -30
-2z"/>
<path d="M2580 3970 c34 -11 60 -11 35 0 -11 5 -29 8 -40 8 -16 0 -15 -2 5 -8z"/>
<path d="M5756 3957 c3 -10 9 -15 12 -12 3 3 0 11 -7 18 -10 9 -11 8 -5 -6z"/>
<path d="M6063 3954 c-3 -8 -1 -29 4 -47 9 -31 10 -30 9 15 -1 51 -3 57 -13
32z"/>
<path d="M2167 3918 c-22 -17 -67 -79 -67 -92 0 -6 11 6 25 27 14 20 30 37 36
37 6 0 8 4 4 9 -7 13 30 24 54 16 13 -4 18 -12 15 -23 -5 -14 -4 -15 4 -2 9
12 15 10 36 -13 14 -15 28 -27 32 -27 13 0 -40 51 -68 66 -33 17 -49 18 -71 2z"/>
<path d="M5364 3917 c3 -11 9 -30 12 -43 3 -13 10 -24 15 -24 5 0 9 -8 9 -18
0 -19 18 -42 33 -42 5 0 5 6 -1 13 -5 6 -24 39 -42 72 -17 33 -29 52 -26 42z"/>
<path d="M912 3885 c-1 -22 -4 -58 -7 -80 l-5 -40 11 40 c5 22 8 58 6 80 l-4
40 -1 -40z"/>
<path d="M1215 3891 c-6 -10 41 -51 59 -51 12 1 -23 30 -36 30 -18 0 -6 19 15
23 19 4 19 4 -5 6 -15 0 -29 -3 -33 -8z"/>
<path d="M1298 3893 c12 -2 30 -2 40 0 9 3 -1 5 -23 4 -22 0 -30 -2 -17 -4z"/>
<path d="M1370 3880 c8 -5 22 -10 30 -10 13 0 13 1 0 10 -8 5 -22 10 -30 10
-13 0 -13 -1 0 -10z"/>
<path d="M1440 3868 c0 -5 30 -7 68 -7 69 2 62 6 -20 11 -27 2 -48 0 -48 -4z"/>
<path d="M1318 3863 c7 -3 16 -2 19 1 4 3 -2 6 -13 5 -11 0 -14 -3 -6 -6z"/>
<path d="M2580 3862 c0 -12 19 -26 26 -19 2 2 -2 10 -11 17 -9 8 -15 8 -15 2z"/>
<path d="M6657 3863 c-2 -5 0 -21 4 -38 7 -29 7 -29 8 8 1 35 -3 46 -12 30z"/>
<path d="M627 3846 c-4 -10 -5 -21 -2 -24 9 -9 17 6 13 25 -3 17 -4 17 -11 -1z"/>
<path d="M1593 3852 c-7 -4 6 -8 30 -9 31 -1 37 1 22 7 -26 11 -37 11 -52 2z"/>
<path d="M1468 3843 c7 -3 16 -2 19 1 4 3 -2 6 -13 5 -11 0 -14 -3 -6 -6z"/>
<path d="M6065 3830 c-4 -12 -5 -24 -2 -27 3 -2 8 5 12 17 4 12 5 24 2 27 -3
2 -8 -5 -12 -17z"/>
<path d="M1294 3831 c7 -11 116 -64 122 -59 2 3 -20 15 -49 29 -28 13 -53 27
-55 32 -2 4 -8 7 -13 7 -6 0 -8 -4 -5 -9z"/>
<path d="M1675 3830 c3 -5 11 -10 16 -10 6 0 7 5 4 10 -3 6 -11 10 -16 10 -6
0 -7 -4 -4 -10z"/>
<path d="M2314 3828 c-4 -6 -3 -8 3 -5 5 4 22 -15 36 -41 15 -26 27 -41 27
-34 0 13 -47 92 -55 92 -2 0 -7 -5 -11 -12z"/>
<path d="M620 3628 c0 -100 2 -179 5 -176 9 9 11 358 3 358 -5 0 -8 -82 -8
-182z"/>
<path d="M1719 3798 c7 -10 11 -25 7 -33 -3 -10 -2 -13 5 -10 6 4 17 -1 25
-11 9 -12 8 -6 -3 14 -10 19 -25 39 -33 45 -13 10 -13 10 -1 -5z"/>
<path d="M2071 3792 c-7 -13 -11 -26 -8 -28 8 -8 29 25 25 38 -3 8 -9 4 -17
-10z"/>
<path d="M2661 3770 c15 -45 24 -54 15 -15 -4 17 -12 34 -17 40 -5 5 -4 -6 2
-25z"/>
<path d="M1442 3771 c13 -22 28 -28 28 -11 0 5 -9 14 -20 20 -19 10 -20 10 -8
-9z"/>
<path d="M6660 3725 c-3 -83 -1 -107 9 -118 4 -4 6 30 4 75 -6 112 -10 127
-13 43z"/>
<path d="M980 3761 c0 -5 7 -12 16 -15 24 -9 28 -7 14 9 -14 17 -30 20 -30 6z"/>
<path d="M1686 3733 c-6 -14 -5 -15 5 -6 7 7 10 15 7 18 -3 3 -9 -2 -12 -12z"/>
<path d="M2040 3724 c-15 -38 -12 -62 15 -134 29 -79 32 -69 5 20 -19 64 -27
116 -11 75 6 -15 8 -8 8 23 0 49 -4 52 -17 16z"/>
<path d="M5450 3746 c0 -13 42 -78 47 -72 3 2 -7 22 -21 43 -14 20 -26 34 -26
29z"/>
<path d="M1038 3725 c11 -22 62 -73 62 -62 0 4 -16 24 -36 44 -20 21 -32 29
-26 18z"/>
<path d="M1478 3733 c7 -3 16 -2 19 1 4 3 -2 6 -13 5 -11 0 -14 -3 -6 -6z"/>
<path d="M5947 3729 c7 -7 15 -10 18 -7 3 3 -2 9 -12 12 -14 6 -15 5 -6 -5z"/>
<path d="M903 3685 c0 -22 2 -30 4 -17 2 12 2 30 0 40 -3 9 -5 -1 -4 -23z"/>
<path d="M1770 3715 c0 -5 5 -17 10 -25 5 -8 10 -10 10 -5 0 6 -5 17 -10 25
-5 8 -10 11 -10 5z"/>
<path d="M2670 3696 c0 -14 4 -27 8 -30 5 -3 6 8 4 25 -5 35 -12 38 -12 5z"/>
<path d="M975 3680 c9 -46 26 -102 30 -98 5 5 -23 119 -30 126 -4 4 -4 -9 0
-28z"/>
<path d="M1488 3646 c-2 -19 -1 -33 3 -30 9 5 17 64 8 64 -4 0 -9 -15 -11 -34z"/>
<path d="M2420 3679 c0 -9 31 -69 36 -69 2 0 4 6 4 13 0 12 -39 67 -40 56z"/>
<path d="M5690 3677 c0 -13 69 -161 70 -148 0 7 -12 41 -27 75 -25 57 -43 88
-43 73z"/>
<path d="M1800 3661 c0 -6 4 -13 10 -16 6 -3 7 1 4 9 -7 18 -14 21 -14 7z"/>
<path d="M2660 3639 c0 -11 4 -18 10 -14 5 3 7 12 3 20 -7 21 -13 19 -13 -6z"/>
<path d="M5520 3645 c1 -13 60 -82 60 -70 0 6 -14 26 -30 45 -16 19 -30 31
-30 25z"/>
<path d="M903 3590 c0 -30 2 -43 4 -27 2 15 2 39 0 55 -2 15 -4 2 -4 -28z"/>
<path d="M1140 3616 c0 -4 9 -16 20 -28 11 -12 20 -17 20 -11 0 5 -9 18 -20
28 -11 10 -20 15 -20 11z"/>
<path d="M1834 3604 c9 -8 16 -22 16 -30 0 -8 4 -12 10 -9 11 7 -17 55 -32 55
-5 0 -2 -7 6 -16z"/>
<path d="M2470 3605 c0 -6 7 -20 15 -32 8 -12 12 -30 9 -40 -5 -14 -4 -15 4
-4 8 12 15 9 37 -18 15 -17 29 -30 32 -28 2 2 -11 19 -28 38 -18 19 -40 48
-50 64 -11 17 -19 25 -19 20z"/>
<path d="M1457 3553 l-17 -38 20 24 c11 13 20 29 20 37 0 22 -5 17 -23 -23z"/>
<path d="M1017 3558 c5 -7 25 -33 44 -58 19 -25 44 -55 57 -67 12 -12 22 -26
22 -32 0 -5 4 -13 10 -16 14 -9 0 27 -19 47 -9 9 -25 28 -36 42 -11 15 -30 39
-42 53 -13 14 -23 30 -23 34 0 5 -5 9 -11 9 -8 0 -8 -4 -2 -12z"/>
<path d="M1200 3551 c7 -14 21 -34 31 -45 11 -11 19 -23 19 -26 0 -9 71 -33
77 -26 4 3 -2 6 -12 6 -10 0 -43 26 -74 57 -30 32 -48 47 -41 34z"/>
<path d="M2650 3560 c-9 -6 -10 -10 -3 -10 6 0 15 5 18 10 8 12 4 12 -15 0z"/>
<path d="M1485 3549 c-4 -6 -5 -12 -2 -15 2 -3 7 2 10 11 7 17 1 20 -8 4z"/>
<path d="M1870 3555 c0 -2 15 -12 33 -20 l32 -16 -25 20 c-24 20 -40 26 -40
16z"/>
<path d="M6660 3546 c0 -8 -6 -17 -12 -19 -8 -4 -7 -6 3 -6 9 -1 19 8 22 19 3
11 1 20 -4 20 -5 0 -9 -6 -9 -14z"/>
<path d="M2624 3516 c-9 -19 -9 -26 0 -29 6 -3 12 8 13 24 3 35 1 36 -13 5z"/>
<path d="M5623 3520 c-1 -11 2 -22 6 -24 4 -3 7 4 6 14 -2 27 -10 33 -12 10z"/>
<path d="M903 3450 c0 -41 2 -58 4 -37 2 20 2 54 0 75 -2 20 -4 3 -4 -38z"/>
<path d="M1410 3495 c-8 -9 -8 -15 -2 -15 12 0 26 19 19 26 -2 2 -10 -2 -17
-11z"/>
<path d="M1945 3500 c-3 -5 -1 -10 4 -10 6 0 11 5 11 10 0 6 -2 10 -4 10 -3 0
-8 -4 -11 -10z"/>
<path d="M6647 3502 c6 -4 13 -21 15 -37 3 -29 4 -29 9 8 4 32 2 37 -16 37
-12 0 -16 -3 -8 -8z"/>
<path d="M5665 3490 c-4 -6 -1 -9 7 -8 7 2 12 -2 11 -8 -2 -8 6 -10 20 -6 15
4 17 7 7 10 -8 3 -20 9 -27 14 -7 5 -14 5 -18 -2z"/>
<path d="M2045 3480 l-30 -8 33 -1 c17 0 32 4 32 9 0 6 -1 9 -2 9 -2 -1 -16
-5 -33 -9z"/>
<path d="M6110 3480 c0 -5 12 -10 28 -9 24 0 25 1 7 9 -27 12 -35 12 -35 0z"/>
<path d="M3380 3456 c-95 -51 -134 -76 -120 -76 9 0 31 11 51 24 32 22 101 56
139 69 10 4 9 6 -5 6 -11 1 -40 -10 -65 -23z"/>
<path d="M5740 3470 c-9 -6 -10 -10 -3 -10 6 0 15 5 18 10 8 12 4 12 -15 0z"/>
<path d="M6185 3464 c8 -9 22 -29 31 -46 8 -16 18 -27 22 -24 3 4 -4 20 -17
36 -12 17 -19 35 -16 40 3 6 -3 10 -15 10 -20 0 -20 -1 -5 -16z"/>
<path d="M3898 3463 c7 -3 16 -2 19 1 4 3 -2 6 -13 5 -11 0 -14 -3 -6 -6z"/>
<path d="M6013 3458 c8 -5 8 -8 -2 -8 -8 0 -12 -2 -10 -5 3 -2 27 2 54 9 l50
13 -52 -1 c-28 0 -46 -4 -40 -8z"/>
<path d="M3531 3455 c0 -16 25 -45 38 -45 7 0 9 -4 6 -10 -3 -5 1 -22 10 -37
15 -27 15 -27 9 -3 -4 14 -7 35 -6 48 1 15 -3 22 -13 20 -7 -2 -21 6 -29 17
-9 11 -15 16 -15 10z"/>
<path d="M2560 3439 c0 -5 5 -7 10 -4 6 3 10 8 10 11 0 2 -4 4 -10 4 -5 0 -10
-5 -10 -11z"/>
<path d="M626 3424 c-3 -9 -2 -23 4 -32 7 -14 9 -10 10 16 0 35 -5 41 -14 16z"/>
<path d="M1278 3433 c7 -3 16 -2 19 1 4 3 -2 6 -13 5 -11 0 -14 -3 -6 -6z"/>
<path d="M5950 3430 c-18 -12 -2 -12 25 0 13 6 15 9 5 9 -8 0 -22 -4 -30 -9z"/>
<path d="M3942 3405 c15 -13 37 -38 48 -57 11 -18 20 -27 20 -19 0 14 -45 80
-64 93 -26 18 -28 5 -4 -17z"/>
<path d="M6659 3428 c-6 -12 -4 -68 3 -68 4 0 8 16 8 35 0 29 -5 44 -11 33z"/>
<path d="M3826 3392 c-9 -11 -22 -43 -29 -72 -6 -29 -22 -64 -35 -78 -16 -17
-19 -23 -7 -18 13 5 15 1 10 -17 -5 -17 -4 -19 4 -6 6 9 20 51 32 95 11 43 28
87 37 97 8 9 13 17 10 17 -3 0 -12 -8 -22 -18z"/>
<path d="M5886 3382 c-16 -18 -48 -123 -40 -131 5 -6 24 48 24 71 0 11 9 33
21 49 23 33 21 38 -5 11z"/>
<path d="M6281 3374 c0 -11 3 -14 6 -6 3 7 2 16 -1 19 -3 4 -6 -2 -5 -13z"/>
<path d="M5845 3369 c-4 -6 -5 -12 -2 -15 2 -3 7 2 10 11 7 17 1 20 -8 4z"/>
<path d="M6269 3333 c16 -27 33 -56 38 -67 9 -16 10 -14 9 12 0 17 -5 30 -10
29 -5 -1 -18 15 -29 36 -11 20 -24 37 -29 37 -4 0 5 -21 21 -47z"/>
<path d="M908 3348 c-2 -13 -1 -36 3 -53 5 -24 7 -20 8 23 1 54 -4 68 -11 30z"/>
<path d="M3222 3363 c-7 -2 -17 -14 -23 -26 -11 -20 -10 -20 17 3 16 14 31 26
33 28 7 4 -14 1 -27 -5z"/>
<path d="M633 3315 c4 -22 7 -56 7 -74 0 -21 4 -31 9 -25 9 9 -4 123 -16 134
-3 3 -3 -13 0 -35z"/>
<path d="M1325 3336 c17 -7 32 -11 35 -9 8 7 -24 23 -45 22 -15 0 -13 -3 10
-13z"/>
<path d="M6650 3343 c0 -5 -2 -44 -5 -88 -4 -84 1 -73 14 33 4 34 4 62 -1 62
-4 0 -8 -3 -8 -7z"/>
<path d="M1207 3334 c-4 -4 2 -13 13 -21 17 -12 23 -11 46 4 18 11 22 19 13
22 -7 2 -15 -1 -17 -7 -5 -15 -39 -16 -44 -1 -2 5 -7 7 -11 3z"/>
<path d="M3610 3323 c5 -2 10 -10 10 -17 0 -7 7 -21 15 -32 13 -17 13 -15 1
16 -8 19 -19 35 -25 36 -7 2 -7 0 -1 -3z"/>
<path d="M3771 3314 c0 -11 3 -14 6 -6 3 7 2 16 -1 19 -3 4 -6 -2 -5 -13z"/>
<path d="M3140 3300 c-14 -11 -20 -20 -15 -20 6 0 21 9 35 20 14 11 21 20 15
20 -5 0 -21 -9 -35 -20z"/>
<path d="M4020 3309 c0 -5 5 -7 10 -4 6 3 10 8 10 11 0 2 -4 4 -10 4 -5 0 -10
-5 -10 -11z"/>
<path d="M4030 3281 c0 -6 5 -13 10 -16 6 -3 10 -16 10 -27 0 -12 3 -19 6 -15
9 8 -6 67 -17 67 -5 0 -9 -4 -9 -9z"/>
<path d="M922 3215 c0 -27 4 -61 8 -75 7 -23 8 -22 8 10 1 19 -3 53 -7 75 l-9
40 0 -50z"/>
<path d="M3060 3240 c-8 -5 -12 -12 -9 -15 4 -3 12 1 19 10 14 17 11 19 -10 5z"/>
<path d="M3650 3244 c1 -15 29 -48 36 -41 3 3 -3 16 -15 28 -12 13 -21 19 -21
13z"/>
<path d="M5720 3238 c-24 -9 -40 -25 -40 -42 0 -4 8 2 19 15 16 21 26 23 82
21 35 -2 61 -1 59 1 -11 10 -98 13 -120 5z"/>
<path d="M1351 3224 c0 -11 3 -14 6 -6 3 7 2 16 -1 19 -3 4 -6 -2 -5 -13z"/>
<path d="M2980 3219 c0 -5 5 -7 10 -4 6 3 10 8 10 11 0 2 -4 4 -10 4 -5 0 -10
-5 -10 -11z"/>
<path d="M6340 3218 c0 -9 9 -26 20 -39 l21 -24 -17 35 c-21 43 -24 47 -24 28z"/>
<path d="M902 3200 c0 -14 2 -19 5 -12 2 6 2 18 0 25 -3 6 -5 1 -5 -13z"/>
<path d="M1341 3185 c-1 -11 -4 -31 -7 -45 -5 -22 -4 -23 6 -7 6 10 9 30 7 45
-3 18 -5 20 -6 7z"/>
<path d="M2990 3187 c-8 -7 -22 -21 -30 -31 -14 -18 -14 -18 6 -6 12 7 26 21
33 31 13 22 12 23 -9 6z"/>
<path d="M3700 3192 c0 -13 47 -28 57 -18 4 3 -3 6 -13 6 -11 0 -25 5 -32 12
-9 9 -12 9 -12 0z"/>
<path d="M659 3175 c-3 -11 -1 -40 3 -65 16 -89 40 -191 44 -187 3 2 0 26 -7
53 -6 27 -17 87 -23 134 -7 47 -15 76 -17 65z"/>
<path d="M4090 3129 c11 -38 26 -55 17 -19 -4 14 -7 31 -7 38 0 6 -4 12 -9 12
-6 0 -6 -12 -1 -31z"/>
<path d="M5673 3120 c0 -25 2 -35 4 -22 2 12 2 32 0 45 -2 12 -4 2 -4 -23z"/>
<path d="M6626 3143 c-4 -9 -9 -42 -13 -73 -3 -30 -9 -60 -15 -67 -5 -7 -7
-17 -4 -22 4 -5 2 -12 -3 -15 -5 -3 -12 -32 -16 -65 -4 -32 -13 -71 -21 -86
-8 -15 -11 -32 -7 -38 9 -14 37 88 69 246 23 117 27 166 10 120z"/>
<path d="M2906 3101 c-17 -18 -26 -36 -23 -48 4 -17 5 -17 6 1 0 11 13 33 28
48 15 15 24 28 22 28 -3 0 -18 -13 -33 -29z"/>
<path d="M6361 3074 c-7 -33 -11 -69 -8 -80 3 -12 5 -8 6 12 0 17 6 45 12 62
6 17 9 39 7 49 -2 10 -10 -9 -17 -43z"/>
<path d="M1307 3058 c-10 -31 -13 -56 -8 -61 11 -11 31 0 31 16 0 7 -4 6 -10
-3 -17 -28 -20 -3 -4 44 9 26 14 49 12 51 -2 3 -12 -19 -21 -47z"/>
<path d="M4137 3075 c8 -39 10 -41 15 -11 3 14 2 23 -3 21 -4 -3 -10 1 -13 7
-3 7 -3 0 1 -17z"/>
<path d="M4111 3075 c1 -19 18 -51 18 -35 0 8 -4 22 -9 30 -5 8 -9 11 -9 5z"/>
<path d="M6570 3069 c0 -5 5 -7 10 -4 6 3 10 8 10 11 0 2 -4 4 -10 4 -5 0 -10
-5 -10 -11z"/>
<path d="M5685 2994 c2 -33 9 -71 15 -85 9 -21 9 -19 4 11 -4 19 -10 58 -15
85 -8 50 -8 50 -4 -11z"/>
<path d="M962 3010 c0 -14 2 -19 5 -12 2 6 2 18 0 25 -3 6 -5 1 -5 -13z"/>
<path d="M4130 3007 c0 -7 7 -22 15 -33 13 -17 14 -16 4 14 -11 33 -19 41 -19
19z"/>
<path d="M6566 2997 c3 -10 9 -15 12 -12 3 3 0 11 -7 18 -10 9 -11 8 -5 -6z"/>
<path d="M2873 2920 c0 -47 2 -66 4 -42 2 23 2 61 0 85 -2 23 -4 4 -4 -43z"/>
<path d="M971 2964 c0 -11 3 -14 6 -6 3 7 2 16 -1 19 -3 4 -6 -2 -5 -13z"/>
<path d="M6381 2964 c0 -11 3 -14 6 -6 3 7 2 16 -1 19 -3 4 -6 -2 -5 -13z"/>
<path d="M1270 2935 c0 -8 4 -15 10 -15 5 0 7 7 4 15 -4 8 -8 15 -10 15 -2 0
-4 -7 -4 -15z"/>
<path d="M981 2926 c-2 -33 41 -166 54 -166 5 0 -4 29 -14 45 -3 6 -13 39 -22
75 -9 36 -17 57 -18 46z"/>
<path d="M4181 2923 c-1 -12 4 -25 9 -28 12 -7 12 2 0 30 -8 19 -9 19 -9 -2z"/>
<path d="M6320 2910 c0 -19 3 -21 12 -12 9 9 9 15 0 24 -9 9 -12 7 -12 -12z"/>
<path d="M707 2888 c5 -27 32 -112 68 -218 14 -41 22 -59 18 -40 -4 19 -7 48
-6 63 0 19 -3 24 -8 15 -10 -15 -11 -2 -3 29 4 13 11 20 17 16 6 -3 7 -1 3 5
-10 17 -15 15 -26 -10 -8 -21 -9 -21 -9 -3 -1 11 -10 45 -21 75 -11 30 -20 63
-20 72 0 10 -4 18 -9 18 -5 0 -7 -10 -4 -22z"/>
<path d="M1273 2860 c0 -25 2 -35 4 -22 2 12 2 32 0 45 -2 12 -4 2 -4 -23z"/>
<path d="M4200 2880 c0 -3 9 -23 20 -45 13 -25 20 -32 20 -20 0 17 -39 80 -40
65z"/>
<path d="M6310 2864 c0 -10 -13 -56 -29 -101 -32 -89 -33 -108 -3 -43 10 22
22 37 27 33 4 -5 5 -2 1 5 -4 7 -2 35 4 63 7 28 9 53 6 56 -3 4 -6 -2 -6 -13z"/>
<path d="M972 2810 c0 -14 2 -19 5 -12 2 6 2 18 0 25 -3 6 -5 1 -5 -13z"/>
<path d="M5720 2824 c0 -12 68 -80 73 -73 2 2 -14 22 -35 43 -21 22 -38 35
-38 30z"/>
<path d="M2883 2775 c0 -22 2 -30 4 -17 2 12 2 30 0 40 -3 9 -5 -1 -4 -23z"/>
<path d="M985 2770 c-3 -5 -1 -10 4 -10 6 0 11 5 11 10 0 6 -2 10 -4 10 -3 0
-8 -4 -11 -10z"/>
<path d="M1281 2744 c0 -11 3 -14 6 -6 3 7 2 16 -1 19 -3 4 -6 -2 -5 -13z"/>
<path d="M6532 2733 c-6 -15 -14 -41 -18 -56 -5 -22 -9 -25 -16 -15 -5 8 -6 3
-2 -14 4 -17 2 -28 -5 -28 -6 0 -8 -7 -4 -17 4 -10 2 -14 -4 -10 -7 5 -9 0 -6
-13 3 -12 7 -19 8 -18 7 8 65 191 62 195 -3 2 -9 -9 -15 -24z"/>
<path d="M4790 2740 c8 -5 20 -10 25 -10 6 0 3 5 -5 10 -8 5 -19 10 -25 10 -5
0 -3 -5 5 -10z"/>
<path d="M5800 2730 c0 -5 5 -10 10 -10 6 0 10 5 10 10 0 6 -4 10 -10 10 -5 0
-10 -4 -10 -10z"/>
<path d="M1041 2720 c0 -8 4 -22 9 -30 12 -18 12 -2 0 25 -6 13 -9 15 -9 5z"/>
<path d="M2890 2687 c0 -25 4 -49 10 -52 6 -4 7 11 3 42 -8 63 -13 67 -13 10z"/>
<path d="M4665 2720 c-3 -6 1 -7 9 -4 18 7 21 14 7 14 -6 0 -13 -4 -16 -10z"/>
<path d="M4725 2723 c-11 -3 -24 -9 -29 -14 -5 -4 7 -4 28 2 20 6 47 7 59 4
17 -5 19 -4 7 4 -16 11 -31 12 -65 4z"/>
<path d="M4818 2713 c7 -3 16 -2 19 1 4 3 -2 6 -13 5 -11 0 -14 -3 -6 -6z"/>
<path d="M1296 2685 c-3 -9 -6 -22 -5 -28 0 -7 5 -1 10 12 5 13 8 26 5 28 -2
2 -6 -3 -10 -12z"/>
<path d="M4245 2690 c-3 -5 -1 -10 4 -10 6 0 11 5 11 10 0 6 -2 10 -4 10 -3 0
-8 -4 -11 -10z"/>
<path d="M4643 2678 c-31 -35 -43 -63 -42 -100 1 -20 3 -25 6 -13 12 55 26 86
50 109 14 14 21 26 16 26 -5 0 -19 -10 -30 -22z"/>
<path d="M4876 2667 c3 -10 9 -15 12 -12 3 3 0 11 -7 18 -10 9 -11 8 -5 -6z"/>
<path d="M5842 2660 c0 -14 2 -19 5 -12 2 6 2 18 0 25 -3 6 -5 1 -5 -13z"/>
<path d="M1061 2660 c0 -14 28 -72 29 -59 0 4 -7 22 -15 40 -8 19 -14 27 -14
19z"/>
<path d="M1306 2638 c-3 -13 -5 -34 -5 -48 1 -15 5 -7 10 19 9 47 6 68 -5 29z"/>
<path d="M1331 2644 c0 -11 3 -14 6 -6 3 7 2 16 -1 19 -3 4 -6 -2 -5 -13z"/>
<path d="M4900 2646 c0 -11 30 -39 36 -34 2 3 -5 13 -16 23 -11 10 -20 15 -20
11z"/>
<path d="M6232 2625 c0 -16 2 -22 5 -12 2 9 2 23 0 30 -3 6 -5 -1 -5 -18z"/>
<path d="M1043 2618 c1 -15 6 -23 11 -18 4 4 4 16 -2 26 -9 16 -10 14 -9 -8z"/>
<path d="M4207 2583 c-14 -30 -16 -44 -7 -63 l11 -25 -5 24 c-3 13 2 37 10 53
8 16 14 34 12 40 -2 6 -12 -7 -21 -29z"/>
<path d="M2903 2572 c-1 -37 -1 -37 8 -7 4 16 5 33 1 37 -4 4 -8 -10 -9 -30z"/>
<path d="M4946 2601 c-3 -4 1 -17 9 -27 8 -10 15 -14 15 -7 0 6 -5 15 -10 18
-6 4 -8 11 -5 16 4 5 4 9 1 9 -3 0 -7 -4 -10 -9z"/>
<path d="M807 2594 c-3 -6 6 -42 20 -80 35 -89 53 -124 53 -102 0 9 -4 20 -10
23 -5 3 -10 16 -10 29 0 12 -5 27 -11 33 -6 6 -16 32 -23 59 -7 27 -15 44 -19
38z"/>
<path d="M861 2570 c15 -45 24 -54 15 -15 -4 17 -12 34 -17 40 -5 5 -4 -6 2
-25z"/>
<path d="M3419 2590 c-42 -12 -129 -60 -129 -72 0 -7 6 -6 18 3 39 32 88 52
141 58 46 6 51 8 25 12 -17 3 -41 2 -55 -1z"/>
<path d="M5797 2563 l-18 -38 20 25 c18 22 28 50 18 50 -2 0 -11 -17 -20 -37z"/>
<path d="M3524 2571 c4 -6 16 -11 26 -11 10 0 22 -4 25 -10 3 -5 11 -10 18
-10 16 0 -22 26 -52 35 -16 5 -21 4 -17 -4z"/>
<path d="M3478 2563 c7 -3 16 -2 19 1 4 3 -2 6 -13 5 -11 0 -14 -3 -6 -6z"/>
<path d="M840 2555 c1 -6 7 -21 16 -35 l15 -25 -7 25 c-7 26 -24 52 -24 35z"/>
<path d="M6460 2541 c0 -11 -11 -46 -25 -77 -14 -32 -23 -59 -21 -62 5 -4 27
44 51 110 9 23 10 40 4 43 -5 4 -9 -3 -9 -14z"/>
<path d="M1312 2525 c0 -16 2 -22 5 -12 2 9 2 23 0 30 -3 6 -5 -1 -5 -18z"/>
<path d="M4980 2541 c0 -5 9 -28 21 -52 11 -24 18 -33 14 -19 -3 14 -8 37 -11
53 -6 25 -24 39 -24 18z"/>
<path d="M2925 2520 c-5 -9 -4 -15 4 -18 13 -4 23 -15 46 -47 7 -11 16 -17 19
-14 3 3 -7 19 -23 37 -16 17 -31 37 -33 44 -3 9 -6 9 -13 -2z"/>
<path d="M3610 2518 c6 -9 9 -21 6 -27 -9 -14 3 -39 22 -46 13 -5 13 -2 -3 15
-10 11 -15 23 -11 27 4 4 10 3 14 -3 4 -6 24 -31 45 -57 21 -25 36 -51 32 -56
-3 -7 0 -8 9 -5 21 8 21 9 -17 52 -59 65 -110 118 -97 100z"/>
<path d="M5016 2515 c4 -8 8 -15 10 -15 2 0 4 7 4 15 0 8 -4 15 -10 15 -5 0
-7 -7 -4 -15z"/>
<path d="M6176 2501 c-23 -43 -19 -52 5 -13 12 18 19 35 16 38 -3 3 -13 -8
-21 -25z"/>
<path d="M1124 2507 c4 -11 9 -30 12 -43 3 -13 10 -24 15 -24 12 0 12 1 -12
46 -11 21 -18 31 -15 21z"/>
<path d="M3205 2483 c-38 -20 -64 -38 -58 -40 7 -3 20 3 29 12 10 9 25 14 36
12 10 -3 16 -1 12 4 -3 5 -2 9 3 9 4 0 19 9 33 20 34 27 26 24 -55 -17z"/>
<path d="M4170 2510 c0 -8 -40 -100 -68 -155 -3 -7 -1 -7 6 0 18 16 82 165 72
165 -6 0 -10 -4 -10 -10z"/>
<path d="M4581 2510 c0 -8 4 -22 9 -30 12 -18 12 -2 0 25 -6 13 -9 15 -9 5z"/>
<path d="M4611 2509 c-1 -9 15 -33 34 -55 19 -21 34 -34 34 -29 1 6 -11 21
-25 35 -15 13 -30 33 -34 45 -6 14 -9 15 -9 4z"/>
<path d="M5752 2497 c-25 -27 -30 -46 -6 -27 15 13 38 50 31 50 -2 0 -13 -10
-25 -23z"/>
<path d="M6416 2485 c-9 -26 -7 -32 5 -12 6 10 9 21 6 23 -2 3 -7 -2 -11 -11z"/>
<path d="M1342 2460 c0 -14 2 -19 5 -12 2 6 2 18 0 25 -3 6 -5 1 -5 -13z"/>
<path d="M3251 2477 c2 -1 13 -9 24 -17 19 -14 19 -14 6 3 -7 9 -18 17 -24 17
-6 0 -8 -1 -6 -3z"/>
<path d="M6147 2433 c-3 -10 -20 -42 -36 -70 -17 -29 -26 -53 -21 -53 5 0 12
10 16 23 4 12 9 24 13 27 12 10 44 80 39 85 -3 3 -8 -2 -11 -12z"/>
<path d="M3010 2426 c0 -9 5 -16 10 -16 6 0 10 4 10 9 0 6 -4 13 -10 16 -5 3
-10 -1 -10 -9z"/>
<path d="M3075 2430 l-40 -7 48 -2 c26 0 47 4 47 9 0 6 -3 9 -7 9 -5 -1 -26
-5 -48 -9z"/>
<path d="M5694 2415 c-9 -14 -15 -28 -12 -30 2 -2 12 9 22 25 21 36 13 40 -10
5z"/>
<path d="M5018 2424 c-5 -4 -8 -16 -8 -28 0 -14 3 -17 11 -9 6 6 9 19 7 28 -1
9 -6 13 -10 9z"/>
<path d="M1171 2390 c6 -16 15 -30 20 -30 5 0 9 -6 9 -14 0 -8 4 -18 10 -21
12 -8 3 19 -23 63 -24 40 -29 41 -16 2z"/>
<path d="M4646 2395 c-9 -26 -7 -32 5 -12 6 10 9 21 6 23 -2 3 -7 -2 -11 -11z"/>
<path d="M891 2382 c0 -13 7 -36 18 -50 10 -15 22 -38 26 -51 7 -22 8 -22 17
-7 5 10 7 20 4 23 -3 4 -6 0 -6 -7 0 -15 -46 68 -53 96 -4 15 -5 15 -6 -4z"/>
<path d="M1321 2333 c0 -35 2 -63 7 -63 4 0 6 21 4 48 -5 75 -10 82 -11 15z"/>
<path d="M4140 2371 c0 -6 4 -13 10 -16 6 -3 7 1 4 9 -7 18 -14 21 -14 7z"/>
<path d="M3761 2353 c7 -12 15 -20 18 -17 3 2 -3 12 -13 22 -17 16 -18 16 -5
-5z"/>
<path d="M4621 2344 c0 -11 3 -14 6 -6 3 7 2 16 -1 19 -3 4 -6 -2 -5 -13z"/>
<path d="M6374 2338 c-3 -13 -12 -30 -19 -38 -8 -8 -14 -19 -15 -25 -2 -5 -6
-20 -11 -33 -5 -13 -9 -25 -9 -27 0 -3 -18 -32 -40 -66 -22 -34 -40 -69 -40
-78 1 -9 8 -3 17 14 9 17 15 32 14 34 -2 2 1 7 6 10 12 9 78 131 121 224 2 4
-1 7 -6 7 -6 0 -14 -10 -18 -22z"/>
<path d="M4983 2310 c-12 -22 -17 -40 -12 -40 5 0 17 18 28 40 25 52 13 52
-16 0z"/>
<path d="M5630 2333 c0 -5 -18 -31 -39 -60 -46 -60 -80 -113 -64 -98 7 6 34
41 62 79 47 63 59 86 46 86 -3 0 -5 -3 -5 -7z"/>
<path d="M1342 2310 c0 -14 2 -19 5 -12 2 6 2 18 0 25 -3 6 -5 1 -5 -13z"/>
<path d="M1217 2289 c-3 -13 -4 -25 -2 -28 3 -2 5 1 5 7 0 7 5 12 10 12 6 0
10 -6 10 -13 0 -15 29 -57 30 -42 0 6 -11 27 -24 49 -22 37 -23 37 -29 15z"/>
<path d="M3800 2299 c0 -5 5 -7 10 -4 6 3 10 8 10 11 0 2 -4 4 -10 4 -5 0 -10
-5 -10 -11z"/>
<path d="M4041 2284 c-21 -17 -49 -28 -93 -34 l-63 -9 65 2 c48 2 71 8 88 22
12 11 28 20 34 20 6 0 13 6 16 13 6 20 -14 14 -47 -14z"/>
<path d="M4420 2269 c0 -5 5 -7 10 -4 6 3 10 8 10 11 0 2 -4 4 -10 4 -5 0 -10
-5 -10 -11z"/>
<path d="M4530 2263 c14 -2 39 -6 57 -9 18 -2 39 -12 48 -20 9 -9 15 -11 15
-4 0 17 -64 40 -107 39 -25 -1 -30 -3 -13 -6z"/>
<path d="M6055 2260 c-3 -5 -1 -10 4 -10 6 0 11 5 11 10 0 6 -2 10 -4 10 -3 0
-8 -4 -11 -10z"/>
<path d="M1302 2239 c-7 -11 -11 -23 -9 -25 7 -7 29 24 25 36 -2 6 -9 1 -16
-11z"/>
<path d="M4448 2253 c7 -3 16 -2 19 1 4 3 -2 6 -13 5 -11 0 -14 -3 -6 -6z"/>
<path d="M4905 2209 c-16 -17 -44 -37 -61 -44 -40 -17 -107 -12 -141 10 -20
13 -25 14 -16 3 7 -8 14 -27 15 -41 1 -14 5 -24 9 -21 4 2 5 13 2 24 -4 16 -2
19 13 13 11 -3 22 -11 26 -17 4 -6 11 -6 21 2 8 7 21 10 29 7 23 -9 102 31
126 64 29 40 16 39 -23 0z"/>
<path d="M5526 2223 c-6 -14 -5 -15 5 -6 7 7 10 15 7 18 -3 3 -9 -2 -12 -12z"/>
<path d="M6035 2230 c-3 -5 -1 -10 4 -10 6 0 11 5 11 10 0 6 -2 10 -4 10 -3 0
-8 -4 -11 -10z"/>
<path d="M3848 2213 c7 -3 16 -2 19 1 4 3 -2 6 -13 5 -11 0 -14 -3 -6 -6z"/>
<path d="M4380 2185 c-33 -34 -50 -43 -50 -27 0 4 6 14 13 22 10 12 9 12 -6 0
-10 -7 -16 -19 -13 -27 8 -19 -4 -44 -17 -36 -6 3 -7 1 -3 -6 5 -7 18 -1 39
21 18 17 46 44 62 60 17 15 26 28 20 28 -5 -1 -26 -16 -45 -35z"/>
<path d="M6020 2194 c0 -8 5 -12 10 -9 6 4 8 11 5 16 -9 14 -15 11 -15 -7z"/>
<path d="M990 2173 c1 -20 48 -84 54 -74 4 6 3 11 -2 11 -4 0 -14 16 -22 35
-12 31 -31 48 -30 28z"/>
<path d="M5989 2156 c-8 -17 -8 -29 0 -42 11 -17 11 -17 6 3 -3 12 -1 31 5 43
6 11 8 20 5 20 -3 0 -10 -11 -16 -24z"/>
<path d="M5471 2107 c-13 -21 -12 -21 5 -5 10 10 16 20 13 22 -3 3 -11 -5 -18
-17z"/>
<path d="M4245 2110 c-3 -6 1 -7 9 -4 18 7 21 14 7 14 -6 0 -13 -4 -16 -10z"/>
<path d="M5925 2106 c-17 -7 -25 -15 -18 -19 6 -4 22 2 34 13 28 23 25 24 -16
6z"/>
<path d="M4237 2043 c-32 -30 -56 -57 -55 -59 2 -1 29 22 61 53 32 31 56 57
54 59 -2 2 -29 -22 -60 -53z"/>
<path d="M1053 2083 c-8 -3 1 -26 30 -71 68 -109 120 -179 112 -152 -4 14 -22
43 -40 65 -45 56 -70 105 -45 90 6 -3 7 1 3 10 -4 11 -8 13 -13 5 -5 -8 -10
-7 -17 2 -18 23 -22 47 -10 52 7 2 8 4 2 4 -5 0 -15 -2 -22 -5z"/>
<path d="M5440 2069 c0 -5 5 -7 10 -4 6 3 10 8 10 11 0 2 -4 4 -10 4 -5 0 -10
-5 -10 -11z"/>
<path d="M5805 2065 c-39 -18 -31 -18 25 -1 25 8 36 15 25 15 -11 0 -33 -6
-50 -14z"/>
<path d="M5888 2063 c6 -2 18 -2 25 0 6 3 1 5 -13 5 -14 0 -19 -2 -12 -5z"/>
<path d="M4700 2044 c0 -11 -5 -25 -11 -31 -7 -7 -7 -13 -1 -17 11 -7 28 51
18 61 -3 4 -6 -3 -6 -13z"/>
<path d="M5400 2019 c-26 -28 -38 -49 -27 -49 2 0 18 18 36 40 38 48 33 53 -9
9z"/>
<path d="M5738 2033 c7 -3 16 -2 19 1 4 3 -2 6 -13 5 -11 0 -14 -3 -6 -6z"/>
<path d="M6197 2024 c2 -6 -3 -18 -11 -27 -9 -9 -16 -20 -16 -24 0 -16 -47
-73 -53 -66 -4 3 -7 1 -7 -5 0 -34 29 -5 83 80 30 48 33 56 18 55 -11 0 -17
-6 -14 -13z"/>
<path d="M5672 1999 c-18 -12 -31 -24 -28 -26 2 -3 18 5 35 18 27 19 34 21 58
11 26 -11 27 -11 9 3 -26 20 -34 19 -74 -6z"/>
<path d="M4660 1979 c0 -5 5 -7 10 -4 6 3 10 8 10 11 0 2 -4 4 -10 4 -5 0 -10
-5 -10 -11z"/>
<path d="M4125 1939 c-25 -22 -35 -39 -34 -58 1 -20 2 -22 6 -6 3 11 21 37 41
58 44 45 36 49 -13 6z"/>
<path d="M4612 1936 c-38 -41 -43 -60 -6 -25 23 22 50 59 42 59 -2 0 -18 -15
-36 -34z"/>
<path d="M6116 1945 c4 -8 8 -15 10 -15 2 0 4 7 4 15 0 8 -4 15 -10 15 -5 0
-7 -7 -4 -15z"/>
<path d="M5585 1917 c-10 -12 -38 -43 -62 -69 -23 -26 -43 -55 -43 -65 1 -11
8 -4 21 20 11 20 23 37 27 37 10 0 85 90 80 95 -2 3 -12 -6 -23 -18z"/>
<path d="M5335 1914 c-4 -10 -13 -34 -21 -52 -8 -18 -14 -43 -13 -55 0 -12 11
9 24 48 13 38 22 71 20 73 -3 3 -7 -4 -10 -14z"/>
<path d="M5595 1890 c-3 -6 1 -7 9 -4 18 7 21 14 7 14 -6 0 -13 -4 -16 -10z"/>
<path d="M4495 1820 c-33 -33 -63 -60 -67 -60 -5 0 -8 -5 -8 -12 0 -6 8 -4 19
6 11 10 25 15 32 10 8 -5 10 -3 4 6 -5 8 5 24 30 46 21 18 41 31 45 29 3 -2 7
5 7 16 1 10 1 19 0 19 -1 -1 -29 -28 -62 -60z"/>
<path d="M6088 1848 c-22 -29 -27 -31 -42 -19 -9 8 -16 9 -16 3 0 -6 6 -12 13
-15 9 -3 9 -10 -3 -30 -29 -49 -180 -220 -188 -212 -3 3 2 13 12 24 15 16 15
19 2 24 -9 4 -18 1 -22 -5 -4 -7 -3 -8 4 -4 7 4 12 3 12 -3 0 -5 -5 -13 -11
-16 -6 -4 -8 -13 -5 -20 2 -7 -9 -25 -25 -39 -16 -14 -29 -31 -29 -37 0 -6 -7
-8 -16 -5 -8 3 -12 2 -9 -4 8 -13 -64 -82 -76 -74 -5 3 -9 2 -8 -3 3 -18 -1
-34 -8 -30 -5 3 -26 -12 -48 -34 -22 -21 -45 -39 -52 -39 -7 0 -13 -6 -13 -13
0 -7 -10 -18 -21 -26 -18 -11 -23 -11 -30 0 -4 8 -11 10 -16 6 -4 -5 -1 -12 6
-17 11 -6 8 -14 -15 -34 -32 -28 -54 -35 -34 -11 10 13 11 18 1 28 -10 9 -11
8 -6 -5 5 -12 2 -16 -12 -14 -10 2 -12 1 -4 -1 12 -4 12 -6 0 -14 -10 -6 -10
-9 -1 -9 6 0 12 -4 12 -10 0 -5 -6 -10 -14 -10 -8 0 -33 -16 -56 -35 -45 -37
-56 -42 -62 -24 -2 7 -9 5 -17 -5 -12 -14 -12 -16 3 -10 9 3 16 4 16 0 0 -7
-63 -41 -72 -38 -5 1 -8 -5 -8 -14 0 -18 -3 -19 115 60 91 61 353 274 391 317
11 13 38 40 60 60 62 56 202 216 247 283 16 22 36 50 46 61 21 23 34 45 28 45
-2 0 -16 -15 -29 -32z"/>
<path d="M4082 1825 c0 -16 2 -22 5 -12 2 9 2 23 0 30 -3 6 -5 -1 -5 -18z"/>
<path d="M1220 1818 c1 -17 59 -87 60 -71 0 6 -4 15 -10 18 -5 3 -10 11 -10
16 0 6 5 7 12 3 7 -4 8 -3 4 4 -4 6 -13 9 -21 5 -9 -3 -15 1 -15 10 0 9 -4 19
-10 22 -5 3 -10 0 -10 -7z"/>
<path d="M6005 1779 c-4 -6 -5 -12 -2 -15 2 -3 7 2 10 11 7 17 1 20 -8 4z"/>
<path d="M5291 1739 c-1 -24 6 -45 20 -60 l20 -24 -12 25 c-7 14 -16 41 -20
60 l-7 35 -1 -36z"/>
<path d="M5501 1754 c0 -11 3 -14 6 -6 3 7 2 16 -1 19 -3 4 -6 -2 -5 -13z"/>
<path d="M5471 1750 c-1 -8 -10 -33 -22 -54 -11 -21 -18 -40 -16 -42 7 -7 49
86 44 99 -4 8 -6 7 -6 -3z"/>
<path d="M4393 1725 c-3 -9 -3 -18 -1 -21 3 -3 8 4 11 16 6 23 -1 27 -10 5z"/>
<path d="M4110 1710 c14 -26 56 -53 72 -47 7 2 1 8 -13 12 -15 3 -32 17 -39
31 -8 13 -17 24 -22 24 -5 0 -4 -9 2 -20z"/>
<path d="M1320 1696 c0 -16 71 -97 185 -211 112 -111 137 -134 211 -192 60
-47 64 -41 7 8 -26 23 -60 52 -75 65 -15 13 -32 24 -37 24 -5 0 -13 9 -16 20
-3 11 -9 20 -13 20 -8 0 -40 31 -126 119 -57 59 -59 62 -40 77 18 14 18 14 -5
3 -22 -10 -27 -9 -43 11 -11 13 -16 30 -14 37 4 9 1 11 -5 7 -6 -4 -15 0 -20
7 -5 8 -9 10 -9 5z"/>
<path d="M4350 1681 c-13 -11 -28 -17 -32 -15 -4 3 -8 0 -8 -5 0 -6 -10 -12
-22 -12 -16 -1 -18 -3 -6 -6 19 -5 68 18 87 41 18 21 12 20 -19 -3z"/>
<path d="M4198 1643 c7 -3 16 -2 19 1 4 3 -2 6 -13 5 -11 0 -14 -3 -6 -6z"/>
<path d="M5355 1640 c3 -5 21 -10 38 -9 31 1 31 1 7 9 -36 11 -52 11 -45 0z"/>
<path d="M5774 1534 c-18 -14 -18 -15 4 -4 12 6 22 13 22 15 0 8 -5 6 -26 -11z"/>
<path d="M1567 1459 c7 -7 15 -10 18 -7 3 3 -2 9 -12 12 -14 6 -15 5 -6 -5z"/>
<path d="M5527 1299 c7 -7 15 -10 18 -7 3 3 -2 9 -12 12 -14 6 -15 5 -6 -5z"/>
<path d="M1790 1231 c1 -3 14 -15 31 -26 16 -11 81 -55 143 -97 63 -43 120
-78 128 -78 10 0 9 3 -2 10 -8 5 -11 10 -6 10 5 0 3 7 -4 15 -7 9 -21 13 -30
10 -10 -3 -26 2 -36 12 -10 10 -22 18 -28 18 -6 1 -10 7 -8 14 1 7 -2 10 -8 6
-5 -3 -10 -1 -10 4 0 6 -3 10 -7 10 -20 -3 -33 2 -30 13 1 7 -2 12 -8 13 -21
2 -55 26 -50 35 4 6 -1 7 -11 3 -12 -4 -15 -3 -10 6 4 6 4 11 -1 10 -19 -3
-34 2 -29 9 3 5 -1 9 -9 9 -8 0 -15 -3 -15 -6z m285 -171 c3 -6 -1 -7 -9 -4
-18 7 -21 14 -7 14 6 0 13 -4 16 -10z"/>
<path d="M5320 1140 c0 -5 7 -7 15 -4 8 4 15 8 15 10 0 2 -7 4 -15 4 -8 0 -15
-4 -15 -10z"/>
<path d="M5183 1030 c-18 -9 -30 -20 -27 -23 7 -6 64 25 64 36 0 4 -1 6 -2 6
-2 -1 -18 -9 -35 -19z"/>
<path d="M2150 1020 c0 -6 -11 -8 -27 -4 -16 4 -26 5 -23 2 11 -11 144 -80
135 -70 -5 5 -26 19 -45 30 -22 12 -34 25 -32 36 2 9 0 16 -3 16 -3 0 -5 -5
-5 -10z"/>
<path d="M5047 976 c-4 -10 -1 -13 8 -9 8 3 12 9 9 14 -7 12 -11 11 -17 -5z"/>
<path d="M2248 963 c7 -3 16 -2 19 1 4 3 -2 6 -13 5 -11 0 -14 -3 -6 -6z"/>
<path d="M5070 960 c-8 -5 -12 -11 -9 -14 3 -3 14 1 25 9 21 16 8 20 -16 5z"/>
<path d="M2250 943 c0 -17 129 -75 152 -68 12 5 18 3 14 -3 -3 -5 0 -14 7 -19
24 -19 279 -114 301 -112 11 0 -92 41 -148 59 -16 5 -38 16 -50 23 -12 8 -36
18 -55 22 -20 4 -35 15 -38 25 -3 10 -13 20 -24 23 -10 3 -17 1 -13 -4 3 -5 1
-9 -4 -9 -14 0 -96 43 -104 55 -4 6 -8 6 -8 1 0 -5 -7 -3 -15 4 -8 7 -15 8
-15 3z"/>
<path d="M4942 901 c-35 -16 -68 -33 -74 -39 -7 -7 -17 -12 -23 -12 -7 0 -25
-6 -41 -14 -56 -28 -89 -39 -114 -38 -24 2 -24 1 -4 -7 17 -7 44 0 115 31 107
45 219 99 219 104 0 7 -14 2 -78 -25z"/>
<path d="M2368 913 c7 -3 16 -2 19 1 4 3 -2 6 -13 5 -11 0 -14 -3 -6 -6z"/>
<path d="M4790 850 c-9 -6 -10 -10 -3 -10 6 0 15 5 18 10 8 12 4 12 -15 0z"/>
<path d="M4735 830 c-3 -5 -2 -10 4 -10 5 0 13 5 16 10 3 6 2 10 -4 10 -5 0
-13 -4 -16 -10z"/>
<path d="M4668 773 c7 -3 16 -2 19 1 4 3 -2 6 -13 5 -11 0 -14 -3 -6 -6z"/>
<path d="M4593 757 c-23 -7 -45 -15 -49 -19 -4 -5 -17 -8 -28 -9 -12 0 -15 -3
-9 -6 13 -4 143 34 143 43 0 5 -7 4 -57 -9z"/>
<path d="M2765 725 c17 -7 34 -10 40 -7 5 3 -1 9 -15 13 -42 12 -57 8 -25 -6z"/>
<path d="M2850 729 c0 -5 5 -7 10 -4 6 3 10 8 10 11 0 2 -4 4 -10 4 -5 0 -10
-5 -10 -11z"/>
<path d="M2820 710 c0 -5 7 -10 16 -10 8 0 12 5 9 10 -3 6 -10 10 -16 10 -5 0
-9 -4 -9 -10z"/>
<path d="M2866 705 c-4 -12 92 -41 102 -30 3 3 -1 5 -9 5 -8 0 -31 8 -51 19
-27 13 -38 15 -42 6z"/>
<path d="M4430 705 l-35 -14 40 6 c22 3 44 9 50 14 14 13 -14 10 -55 -6z"/>
<path d="M4320 680 c-14 -4 -38 -11 -54 -15 -15 -3 -27 -8 -24 -10 2 -2 37 4
78 14 41 10 64 19 50 19 -14 0 -36 -3 -50 -8z"/>
<path d="M2980 672 c0 -5 21 -13 48 -17 26 -3 58 -9 72 -12 14 -3 22 -3 19 1
-3 3 -28 10 -55 15 -27 5 -57 13 -66 16 -10 4 -18 3 -18 -3z"/>
<path d="M4221 664 c0 -11 3 -14 6 -6 3 7 2 16 -1 19 -3 4 -6 -2 -5 -13z"/>
<path d="M3138 653 c-5 -21 -3 -23 25 -22 23 1 26 3 10 6 -12 2 -23 12 -25 21
-3 13 -5 12 -10 -5z"/>
<path d="M4108 663 c6 -2 18 -2 25 0 6 3 1 5 -13 5 -14 0 -19 -2 -12 -5z"/>
<path d="M3270 653 c6 -3 7 -11 0 -23 -9 -16 -2 -18 73 -24 45 -4 102 -9 127
-12 33 -3 41 -2 28 6 -9 6 -44 11 -77 12 -33 1 -59 6 -58 11 1 5 -5 12 -13 14
-13 4 -13 3 0 -6 12 -8 5 -11 -28 -11 -34 0 -42 3 -40 16 2 10 -3 18 -10 20
-7 1 -8 0 -2 -3z"/>
<path d="M4008 653 c6 -2 18 -2 25 0 6 3 1 5 -13 5 -14 0 -19 -2 -12 -5z"/>
<path d="M4170 649 c-19 -4 -49 -6 -66 -3 -21 4 -34 1 -43 -10 -9 -11 -10 -16
-2 -16 6 0 11 5 11 10 0 6 10 10 23 9 21 0 21 -1 2 -10 -17 -8 -17 -9 5 -4 14
3 44 8 68 11 23 4 42 11 42 15 0 5 -1 9 -2 8 -2 -1 -19 -5 -38 -10z"/>
<path d="M3213 623 c9 -2 23 -2 30 0 6 3 -1 5 -18 5 -16 0 -22 -2 -12 -5z"/>
<path d="M3995 620 l-30 -8 32 -1 c17 0 35 4 38 9 7 11 3 11 -40 0z"/>
<path d="M3860 610 c-14 -4 -92 -9 -175 -11 l-150 -3 115 -4 c133 -4 263 6
254 19 -6 10 -9 10 -44 -1z"/>
<path d="M3930 610 c-13 -8 -12 -10 3 -10 9 0 17 5 17 10 0 12 -1 12 -20 0z"/>
</g>
</svg>
